      Format : AVI
      Format/Info : Audio Video Interleave
      File size : 1.37 GiB
      Duration : 1h 44mn
      Overall bit rate : 1 875 Kbps
      Writing application : VirtualDubMod 1.5.4.1 (build 2178/release)
      Writing library : VirtualDub build 32842/release

   Video
      ID : 0
      Format : MPEG-4 Visual
      Format profile : AdvancedSimple@L5
      Format settings, BVOP : No
      Format settings, QPel : No
      Format settings, GMC : No warppoints
      Format settings, Matrix : Custom
      Codec ID : XVID
      Codec ID/Hint : XviD
      Duration : 1h 44mn
      Bit rate : 1 737 Kbps
      Width : 640 pixels
      Height : 368 pixels
      Display aspect ratio : 16:9
      Frame rate : 25.000 fps
      Resolution : 24 bits
      Colorimetry : 4:2:0
      Scan type : Progressive
      Bits/(Pixel*Frame) : 0.295
      Stream size : 1.27 GiB (93%)
      Writing library : XviD 1.2.1 (UTC 2008-12-04)

   Audio
      ID : 1
      Format : MPEG Audio
      Format version : Version 1
      Format profile : Layer 3
      Codec ID : 55
      Codec ID/Hint : MP3
      Duration : 1h 44mn
      Bit rate mode : Constant
      Bit rate : 128 Kbps
      Channel(s) : 2 channels
      Sampling rate : 48.0 KHz
      Resolution : 16 bits
      Stream size : 95.7 MiB (7%)
      Alignment : Aligned on interleaves
      Interleave, duration : 40 ms (1.00 video frame)
      Interleave, preload duration : 504 ms
      Writing library : LAME3.98r
      Encoding settings : -m j -V 4 -q 2 -lowpass 17 -b 128

Subtitles: 
not in torrent, english: http://www.opensubtitles.org/en/subtitles/4186771/prezit-svuj-zivot-en

Screenshots: 
http://img228.imageshack.us/img228/3646/vlcsnap2011060115h12m29.jpg 
http://img829.imageshack.us/img829/5661/vlcsnap2011060115h12m57.jpg 
http://img29.imageshack.us/img29/8081/vlcsnap2011060115h11m50.jpg